<svg xmlns="http://www.w3.org/2000/svg"  viewBox="0 0 64 64" width="64px" height="64px"><linearGradient id="x3C~lkLM2WUCMk~~zdR~xa" x1="28.5" x2="28.5" y1="12.464" y2="47.538" gradientUnits="userSpaceOnUse" spreadMethod="reflect"><stop offset="0" stop-color="#1a6dff"/><stop offset="1" stop-color="#c822ff"/></linearGradient><path fill="url(#x3C~lkLM2WUCMk~~zdR~xa)" d="M45,37.052c-0.06-0.021-0.11-0.052-0.17-0.073c-1.08-0.458-2.23-0.906-3.46-1.344h-0.01 c-0.05-0.021-0.1-0.042-0.16-0.052h-0.02c-0.43-0.156-0.86-0.312-1.31-0.458c-0.44-0.146-0.89-0.292-1.35-0.448 c-0.35-0.115-0.7-0.219-1.05-0.333c-2.43-0.74-5.04-1.448-7.76-2.083c-2.28-0.531-4.49-0.969-6.59-1.313 c-0.05-0.01-0.1-0.021-0.15-0.021c-1.22-0.188-2.4-0.365-3.53-0.49c-0.05-0.01-0.09-0.01-0.14-0.01 c-1.48-0.177-2.87-0.292-4.19-0.365c-2.29-0.115-4.3-0.073-6.01,0.104C5.5,30.531,3.29,31.5,3.03,32.99 c-0.37,2.052,3.21,4.719,9.05,7.209c0.01,0.01,0.03,0.01,0.04,0.021c0.62,0.271,1.27,0.531,1.96,0.792 c0.02,0.01,0.04,0.01,0.06,0.021c2.06,0.802,4.34,1.573,6.79,2.281c0.36,0.104,0.72,0.208,1.09,0.313 c1.1,0.302,2.24,0.594,3.39,0.875c0.03,0.01,0.05,0.01,0.08,0.021c0.59,0.135,1.19,0.271,1.8,0.417 c0.71,0.146,1.39,0.292,2.09,0.438c0.03,0.01,0.07,0.01,0.1,0.021c13.02,2.573,23.9,1.99,24.49-1.323 C54.34,42.032,50.79,39.469,45,37.052z M45.47,42.042c-0.31,1.729-5.22,2.646-12.43,1.906c-0.05,0-0.09-0.01-0.14-0.021h-0.01 c-1.38-0.125-2.85-0.333-4.39-0.604c-0.04-0.01-0.08-0.01-0.12-0.021c-0.94-0.177-1.92-0.365-2.93-0.583 c-0.57-0.125-1.13-0.26-1.69-0.396c-0.88-0.208-1.75-0.438-2.6-0.688c-0.45-0.125-0.9-0.25-1.34-0.396 c-0.87-0.26-1.72-0.531-2.54-0.813c-0.24-0.083-0.49-0.167-0.72-0.26c-0.57-0.198-1.12-0.396-1.65-0.604c0,0,0-0.01,0.01-0.01 c-0.02-0.01-0.04-0.01-0.06-0.021c0,0,0,0.01-0.01,0.01c-0.71-0.292-1.39-0.563-2.04-0.854c-0.02-0.01-0.03-0.01-0.05-0.021 c-4.64-2.042-7.59-4.188-7.33-5.604c0.16-0.886,1.53-1.458,3.74-1.698c1.58-0.177,3.58-0.177,5.88-0.031 c0.96,0.083,1.98,0.167,3.04,0.302c0.04,0,0.09,0,0.13,0.01c1.05,0.135,2.17,0.302,3.31,0.5c0.05,0,0.1,0.01,0.15,0.021 c1.79,0.292,3.67,0.688,5.61,1.136c2.33,0.563,4.49,1.167,6.46,1.792c1,0.333,1.94,0.656,2.83,1c0.44,0.167,0.87,0.333,1.29,0.51 h0.01c0.42,0.167,0.82,0.333,1.21,0.5c0.05,0.031,0.11,0.052,0.16,0.073c1.16,0.5,2.19,1.031,3.05,1.542 c0.05,0.031,0.09,0.052,0.14,0.083C44.54,40.032,45.64,41.188,45.47,42.042z M14.86,39.532c0,0,0,0.01-0.01,0.01 c0.02,0,0.04,0.01,0.06,0.021c0,0,0-0.01,0.01-0.01C14.9,39.542,14.88,39.542,14.86,39.532z"/><linearGradient id="x3C~lkLM2WUCMk~~zdR~xb" x1="36" x2="36" y1="13.167" y2="46.836" gradientUnits="userSpaceOnUse" spreadMethod="reflect"><stop offset="0" stop-color="#1a6dff"/><stop offset="1" stop-color="#c822ff"/></linearGradient><path fill="url(#x3C~lkLM2WUCMk~~zdR~xb)" d="M60.61,15.44c-2.44-4.82-15.43-2.27-29.02,5.71c-4.9,2.88-9.22,6.07-12.61,9.2 c-0.02,0.02-0.04,0.04-0.06,0.06c-0.41,0.37-0.8,0.74-1.17,1.11c-0.02,0.02-0.03,0.03-0.05,0.05c-2.4,2.36-4.24,4.66-5.37,6.73 c0,0.01-0.01,0.01-0.01,0.02c-0.29,0.5-0.51,1-0.69,1.46v0.01c-0.74,1.78-0.85,3.31-0.23,4.51c1.75,3.45,8.81,3.58,17.67,0.47 c0.01,0,0.01,0,0.02-0.01c1.15-0.4,2.33-0.86,3.54-1.39h0.01c2.47-1.06,5.04-2.34,7.63-3.86c0.62-0.36,1.21-0.73,1.81-1.1 c0.02-0.01,0.03-0.02,0.05-0.04h0.01c0.86-0.53,1.69-1.08,2.51-1.65c0.01-0.01,0.02-0.01,0.03-0.02 C55.77,29.08,62.78,19.71,60.61,15.44z M41.13,34.89h-0.02c-0.68,0.49-1.39,0.98-2.11,1.44h-0.01c-0.01,0.01-0.01,0.02-0.02,0.02 c-0.75,0.5-1.5,0.97-2.27,1.45c-2.98,1.83-5.88,3.3-8.59,4.42c-1.04,0.44-2.05,0.81-3.02,1.14c-0.01,0-0.02,0.01-0.03,0.01 c-6.08,2.06-10.65,2.14-11.68,0.4c-0.58-0.97-0.48-2.25,0.2-3.72c0.21-0.46,0.48-0.92,0.78-1.4c0.02,0,0.03,0,0.01-0.01 c1.36-2.11,3.69-4.51,6.78-7.02c0.02-0.02,0.04-0.03,0.06-0.05c0.45-0.35,0.91-0.73,1.4-1.11c0.02-0.02,0.04-0.03,0.06-0.05 c1.97-1.49,4.21-3.03,6.67-4.54c11.29-6.95,22.63-10.96,25.16-7.75C56.92,21.2,50.27,28.47,41.13,34.89z"/><linearGradient id="x3C~lkLM2WUCMk~~zdR~xc" x1="12.5" x2="12.5" y1="27" y2="34" gradientUnits="userSpaceOnUse" spreadMethod="reflect"><stop offset="0" stop-color="#6dc7ff"/><stop offset="1" stop-color="#e6abff"/></linearGradient><path fill="url(#x3C~lkLM2WUCMk~~zdR~xc)" d="M16,30.5c0,0.294-0.042,0.588-0.112,0.868C15.51,32.88,14.138,34,12.5,34 c-1.624,0-2.982-1.106-3.388-2.604C9.042,31.116,9,30.808,9,30.5c0-0.154,0.014-0.294,0.028-0.448C9.252,28.33,10.722,27,12.5,27 c1.736,0,3.192,1.274,3.458,2.94C15.986,30.122,16,30.304,16,30.5z"/></svg>